<svg width="32" height="32" viewBox="0 0 32 32" fill="none" xmlns="http://www.w3.org/2000/svg">
  <defs>
    <linearGradient id="leafGradient" x1="0%" y1="0%" x2="100%" y2="100%">
      <stop offset="0%" style="stop-color:#1A3C30;stop-opacity:1" />
      <stop offset="50%" style="stop-color:#2A4D3E;stop-opacity:1" />
      <stop offset="100%" style="stop-color:#5C8070;stop-opacity:1" />
    </linearGradient>
  </defs>
  
  <!-- Folha principal -->
  <path d="M16 3c-8 0-12 8-12 16 0 4 2 7 5 9 1.5 1 3.5 1.5 6 1.5s4.5-0.5 6-1.5c3-2 5-5 5-9 0-8-4-16-10-16z" 
        fill="url(#leafGradient)" 
        stroke="#0D211A" 
        stroke-width="0.5"/>
  
  <!-- Nervura central -->
  <path d="M16 3c0 8 0 16 0 24" 
        stroke="#0D211A" 
        stroke-width="1.5" 
        stroke-linecap="round"/>
  
  <!-- Nervuras laterais -->
  <path d="M8 12c4 2 8 4 8 4" 
        stroke="#0D211A" 
        stroke-width="0.8" 
        stroke-linecap="round" 
        opacity="0.7"/>
  <path d="M24 12c-4 2-8 4-8 4" 
        stroke="#0D211A" 
        stroke-width="0.8" 
        stroke-linecap="round" 
        opacity="0.7"/>
  <path d="M10 18c3 1.5 6 3 6 3" 
        stroke="#0D211A" 
        stroke-width="0.8" 
        stroke-linecap="round" 
        opacity="0.7"/>
  <path d="M22 18c-3 1.5-6 3-6 3" 
        stroke="#0D211A" 
        stroke-width="0.8" 
        stroke-linecap="round" 
        opacity="0.7"/>
</svg>
